<?xml version="1.0" standalone="no"?>
<!DOCTYPE svg PUBLIC "-//W3C//DTD SVG 20010904//EN"
 "http://www.w3.org/TR/2001/REC-SVG-20010904/DTD/svg10.dtd">
<svg version="1.0" xmlns="http://www.w3.org/2000/svg"
 width="112.000000pt" height="112.000000pt" viewBox="0 0 112.000000 112.000000"
 preserveAspectRatio="xMidYMid meet">
<metadata>
Created by potrace 1.14, written by Peter Selinger 2001-2017
</metadata>
<g transform="translate(0.000000,112.000000) scale(0.100000,-0.100000)"
fill="#000000" stroke="none">
<path d="M311 979 c-24 -40 -18 -87 16 -115 19 -16 26 -32 27 -60 1 -35 -1
-38 -34 -45 -19 -4 -37 -6 -41 -3 -4 2 -25 34 -47 72 -42 70 -120 152 -146
152 -10 0 -18 -14 -22 -37 -4 -21 -8 -46 -10 -55 -1 -9 -6 -52 -9 -95 -4 -43
-9 -87 -12 -98 -3 -11 -7 -68 -8 -127 -2 -59 -9 -133 -14 -165 -6 -31 -11
-135 -11 -230 l0 -173 561 0 562 0 -6 143 c-4 122 -10 161 -42 277 -30 112
-36 152 -37 235 0 117 -35 295 -57 295 -23 0 -125 -73 -191 -136 -62 -60 -83
-74 -99 -69 -12 3 -21 10 -21 15 0 20 24 60 37 60 49 0 72 96 33 138 -25 26
-52 28 -90 5 -34 -20 -43 -48 -34 -112 10 -80 2 -87 -105 -83 l-91 3 0 45 c0
27 6 52 15 60 19 20 19 47 0 84 -30 59 -94 68 -124 19z"/>
</g>
</svg>
